<svg xmlns="http://www.w3.org/2000/svg" version="1.1" xmlns:xlink="http://www.w3.org/1999/xlink" xmlns:svgjs="http://svgjs.dev/svgjs" width="2000" height="1999" viewBox="0 0 2000 1999"><g transform="matrix(1,0,0,1,-0.431486880466764,-0.4312711370263287)"><svg viewBox="0 0 343 343" data-background-color="#ffffff" preserveAspectRatio="xMidYMid meet" height="1999" width="2000" xmlns="http://www.w3.org/2000/svg" xmlns:xlink="http://www.w3.org/1999/xlink"><g id="tight-bounds" transform="matrix(1,0,0,1,0.0740000000000407,0.07400000000001228)"><svg viewBox="0 0 342.85155851775386 342.85155851775386" height="342.85155851775386" width="342.85155851775386"><g><svg></svg></g><g><svg viewBox="0 0 342.85155851775386 342.85155851775386" height="342.85155851775386" width="342.85155851775386"><g><path d="M0 171.426c0-94.676 76.75-171.426 171.426-171.426 94.676 0 171.426 76.75 171.426 171.426 0 94.676-76.75 171.426-171.426 171.426-94.676 0-171.426-76.75-171.426-171.426zM171.426 338.988c92.542 0 167.562-75.02 167.562-167.562 0-92.542-75.02-167.562-167.562-167.563-92.542 0-167.562 75.02-167.563 167.563 0 92.542 75.02 167.562 167.563 167.562z" data-fill-palette-color="tertiary" fill="#ffffff" stroke="transparent"></path><ellipse rx="164.56874808852186" ry="164.56874808852186" cx="171.42577925887693" cy="171.42577925887693" fill="#ffffff" stroke="transparent" stroke-width="0" fill-opacity="1" data-fill-palette-color="tertiary"></ellipse></g><g transform="matrix(1,0,0,1,64.84655864529837,87.35431106045314)"><svg viewBox="0 0 213.1584412271571 168.14293639684757" height="168.14293639684757" width="213.1584412271571"><g><svg viewBox="0 0 213.1584412271571 168.14293639684757" height="168.14293639684757" width="213.1584412271571"><g><svg viewBox="0 0 213.1584412271571 168.14293639684757" height="168.14293639684757" width="213.1584412271571"><g transform="matrix(1,0,0,1,0,101.79982847563278)"><svg viewBox="0 0 213.1584412271571 66.34310792121481" height="66.34310792121481" width="213.1584412271571"><g id="textblocktransform"><svg viewBox="0 0 213.1584412271571 66.34310792121481" height="66.34310792121481" width="213.1584412271571" id="textblock"><g><svg viewBox="0 0 213.1584412271571 42.84066710937961" height="42.84066710937961" width="213.1584412271571"><g transform="matrix(1,0,0,1,0,0)"><svg width="213.1584412271571" viewBox="0 -36.5 183.59 36.9" height="42.84066710937961" data-palette-color="#ffffff"><path d="M12.7 0L0 0 0.3-2Q2.95-2.35 4.4-3.4L4.4-3.4 15.5-33.85 19.6-33.85 31.6-3.35Q32.85-2.4 35.45-2L35.45-2 35.2 0 20.95 0 21.25-2Q24.45-2.35 26-3.35L26-3.35 22.95-11.35 10.8-11.35 7.95-3.3Q9.6-2.4 12.95-2L12.95-2 12.7 0ZM16.65-27.85L11.8-14.15 21.9-14.15 16.65-27.85ZM42.45 0L39.9 0 39.9-29.9Q39.9-31.6 39.02-32.27 38.15-32.95 36.15-33.05L36.15-33.05 36.3-34.65Q38.35-35 43.45-36.5L43.45-36.5 44.5-35.95 44.5-21.9Q46.65-25.65 50.7-25.65L50.7-25.65Q56-25.65 58.45-22.2 60.9-18.75 60.9-12.83 60.9-6.9 58-3.25 55.1 0.4 49.65 0.4L49.65 0.4Q46.3 0.4 43.55-2.25L43.55-2.25Q42.8-1.15 42.45 0L42.45 0ZM44.5-11.05L44.5-11.05 44.5-4.6Q47.4-1.9 49.6-1.9 51.8-1.9 53.1-2.83 54.4-3.75 55-5.5L55-5.5Q56-8.4 56-11.8 56-15.2 55.85-16.8 55.7-18.4 55.2-20.05L55.2-20.05Q54.2-23.35 50.7-23.35L50.7-23.35Q46.75-23.35 45.5-19.4L45.5-19.4Q44.5-16.15 44.5-11.05ZM70.15-2.6Q72-2.05 74.15-2.05 76.3-2.05 77.65-3.28 79-4.5 79-6.15 79-7.8 78.02-8.83 77.05-9.85 75.6-10.33 74.15-10.8 72.42-11.45 70.7-12.1 69.25-12.8 67.8-13.5 66.82-15.08 65.85-16.65 65.85-18.9L65.85-18.9Q65.85-21.95 68.27-23.78 70.7-25.6 74.42-25.6 78.15-25.6 80.55-24.08 82.95-22.55 82.95-20.35L82.95-20.35Q82.95-17.55 80.45-17.55L80.45-17.55Q78.55-17.55 77.6-19L77.6-19Q78.45-19.7 78.45-20.88 78.45-22.05 77.27-22.75 76.1-23.45 74.22-23.45 72.35-23.45 71.12-22.48 69.9-21.5 69.9-19.75 69.9-18 71.27-16.85 72.65-15.7 74.6-15.08 76.55-14.45 78.52-13.73 80.5-13 81.87-11.4 83.25-9.8 83.25-7.35L83.25-7.35Q83.25-3.7 80.75-1.7 78.25 0.3 73.7 0.3L73.7 0.3Q71.85 0.3 69.42-0.33 67-0.95 65.8-1.75L65.8-1.75 65.8-8.4 68.7-8.75Q69.05-4.65 70.15-2.6L70.15-2.6ZM107.19-13.05L92.69-13.05 92.69-12.25Q92.69-6.05 94.34-3.9L94.34-3.9Q95.89-1.9 99.42-1.9 102.94-1.9 105.44-4.85L105.44-4.85 107.14-3.15Q104.09 0.4 98.94 0.4L98.94 0.4Q92.89 0.4 90.32-2.95 87.74-6.3 87.74-12.55 87.74-18.8 90.54-22.23 93.34-25.65 98.64-25.65 103.94-25.65 106.04-22.85 108.14-20.05 108.29-14.5L108.29-14.5 107.19-13.05ZM98.54-23.45L98.54-23.45Q92.84-23.45 92.69-15.05L92.69-15.05 103.44-15.45Q103.44-19.65 102.39-21.55 101.34-23.45 98.54-23.45ZM115.34-3.3L115.34-18.7Q115.34-20.7 114.52-21.43 113.69-22.15 111.59-22.25L111.59-22.25 111.74-23.85Q112.84-24.05 118.34-25.65L118.34-25.65 119.29-25.15 119.79-21.8Q122.59-25.65 126.69-25.65 130.79-25.65 132.99-23.68 135.19-21.7 135.19-18.2L135.19-18.2 135.19-3.3Q136.44-2.35 138.94-1.85L138.94-1.85 138.74 0 126.89 0 127.04-1.85Q129.04-2.15 130.59-3.3L130.59-3.3 130.59-17.7Q130.59-23.05 125.99-23.05L125.99-23.05Q124.14-23.05 122.44-21.8 120.74-20.55 119.94-18.55L119.94-18.55 119.94-3.3Q121.29-2.3 123.69-1.85L123.69-1.85 123.49 0 111.59 0 111.79-1.95Q113.94-2.3 115.34-3.3L115.34-3.3ZM145.24-3.3L145.24-18.8Q145.24-20.8 144.41-21.53 143.59-22.25 141.49-22.35L141.49-22.35 141.64-23.95Q143.69-24.3 148.79-25.8L148.79-25.8 149.84-25.25 149.84-3.3Q151.19-2.3 153.59-1.85L153.59-1.85 153.39 0 141.49 0 141.69-1.95Q143.84-2.3 145.24-3.3L145.24-3.3ZM150.09-32.77Q150.09-29.65 147.26-29.65 144.44-29.65 144.44-32.77 144.44-35.9 147.26-35.9 150.09-35.9 150.09-32.77ZM159.99-3.3L159.99-18.7Q159.99-20.7 159.16-21.43 158.34-22.15 156.24-22.25L156.24-22.25 156.39-23.85Q157.49-24.05 162.99-25.65L162.99-25.65 163.94-25.15 164.44-21.8Q167.24-25.65 171.34-25.65 175.44-25.65 177.64-23.68 179.84-21.7 179.84-18.2L179.84-18.2 179.84-3.3Q181.09-2.35 183.59-1.85L183.59-1.85 183.39 0 171.53 0 171.69-1.85Q173.69-2.15 175.24-3.3L175.24-3.3 175.24-17.7Q175.24-23.05 170.64-23.05L170.64-23.05Q168.78-23.05 167.09-21.8 165.39-20.55 164.59-18.55L164.59-18.55 164.59-3.3Q165.94-2.3 168.34-1.85L168.34-1.85 168.14 0 156.24 0 156.44-1.95Q158.59-2.3 159.99-3.3L159.99-3.3Z" opacity="1" transform="matrix(1,0,0,1,0,0)" fill="#000000" class="wordmark-text-0" data-fill-palette-color="quaternary" id="text-0"></path></svg></g></svg></g><g transform="matrix(1,0,0,1,0,52.954320437893514)"><svg viewBox="0 0 213.1584412271571 13.388787483321302" height="13.388787483321302" width="213.1584412271571"><g transform="matrix(1,0,0,1,0,0)"><svg width="213.1584412271571" viewBox="1.95 -36.5 762.52 47.9" height="13.388787483321302" data-palette-color="#ffffff"><path d="M35.7-3.4L35.5-3.4 35.5-28.3 24.9 0 21.7 0 10.55-28.75 10.55-3.4Q12.35-2.4 15.7-2L15.7-2 15.45 0 1.95 0 2.25-2Q5.35-2.35 7.1-3.4L7.1-3.4 7.1-30.4Q5.3-31.4 1.95-31.8L1.95-31.8 2.2-33.8 13.3-33.8 24.05-6.65 34.4-33.8 45.4-33.8 45.1-31.8Q42-31.45 40.25-30.4L40.25-30.4 40.25-3.4Q42.05-2.4 45.4-2L45.4-2 45.15 0 30.55 0 30.85-2Q33.95-2.35 35.7-3.4L35.7-3.4ZM54.2-12.65Q54.2-7.05 55.7-4.58 57.2-2.1 60.57-2.1 63.95-2.1 65.45-4.58 66.95-7.05 66.95-12.63 66.95-18.2 65.45-20.68 63.95-23.15 60.55-23.15 57.15-23.15 55.67-20.7 54.2-18.25 54.2-12.65ZM68.87-2.93Q66.05 0.4 60.55 0.4 55.05 0.4 52.22-2.93 49.4-6.25 49.4-12.63 49.4-19 52.22-22.33 55.05-25.65 60.55-25.65 66.05-25.65 68.87-22.33 71.7-19 71.7-12.63 71.7-6.25 68.87-2.93ZM79.15-3.3L79.15-18.7Q79.15-20.7 78.32-21.43 77.5-22.15 75.4-22.25L75.4-22.25 75.55-23.85Q76.65-24.05 82.15-25.65L82.15-25.65 83.09-25.15 83.59-21.8Q86.4-25.65 90.5-25.65 94.59-25.65 96.8-23.68 99-21.7 99-18.2L99-18.2 99-3.3Q100.25-2.35 102.75-1.85L102.75-1.85 102.55 0 90.7 0 90.84-1.85Q92.84-2.15 94.4-3.3L94.4-3.3 94.4-17.7Q94.4-23.05 89.8-23.05L89.8-23.05Q87.95-23.05 86.25-21.8 84.55-20.55 83.75-18.55L83.75-18.55 83.75-3.3Q85.09-2.3 87.5-1.85L87.5-1.85 87.3 0 75.4 0 75.59-1.95Q77.75-2.3 79.15-3.3L79.15-3.3ZM109.04-3.3L109.04-18.8Q109.04-20.8 108.22-21.53 107.39-22.25 105.29-22.35L105.29-22.35 105.44-23.95Q107.49-24.3 112.59-25.8L112.59-25.8 113.64-25.25 113.64-3.3Q114.99-2.3 117.39-1.85L117.39-1.85 117.19 0 105.29 0 105.49-1.95Q107.64-2.3 109.04-3.3L109.04-3.3ZM113.89-32.77Q113.89-29.65 111.07-29.65 108.24-29.65 108.24-32.77 108.24-35.9 111.07-35.9 113.89-35.9 113.89-32.77ZM123.79-6.25L123.79-6.25 123.79-22.5 119.39-22.5 119.39-24Q124.69-25.8 126.29-30.55L126.29-30.55 128.44-30.55 128.44-25.3 134.54-25.3 134.54-22.5 128.39-22.5 128.39-5.85Q128.39-3.85 128.84-3 129.29-2.15 130.89-2.15 132.49-2.15 134.24-3.2L134.24-3.2 135.29-1.6Q132.79 0.4 129.49 0.4 126.19 0.4 124.99-1.13 123.79-2.65 123.79-6.25ZM143.09-12.65Q143.09-7.05 144.59-4.58 146.09-2.1 149.46-2.1 152.84-2.1 154.34-4.58 155.84-7.05 155.84-12.63 155.84-18.2 154.34-20.68 152.84-23.15 149.44-23.15 146.04-23.15 144.56-20.7 143.09-18.25 143.09-12.65ZM157.76-2.93Q154.94 0.4 149.44 0.4 143.94 0.4 141.11-2.93 138.29-6.25 138.29-12.63 138.29-19 141.11-22.33 143.94-25.65 149.44-25.65 154.94-25.65 157.76-22.33 160.59-19 160.59-12.63 160.59-6.25 157.76-2.93ZM168.24-3.3L168.24-18.7Q168.24-20.7 167.41-21.43 166.59-22.15 164.49-22.25L164.49-22.25 164.64-23.85Q165.74-24.05 171.24-25.65L171.24-25.65 172.19-25.15 172.74-21.4Q175.59-25.65 179.19-25.65L179.19-25.65Q181.14-25.65 182.56-24.5 183.99-23.35 183.99-21.63 183.99-19.9 183.21-18.9 182.44-17.9 181.31-17.9 180.19-17.9 179.39-18.35 178.59-18.8 178.39-19.55L178.39-19.55Q178.94-20.1 178.94-21.05L178.94-21.05Q178.94-22.7 177.39-22.7 175.84-22.7 174.34-20.4 172.84-18.1 172.84-15.55L172.84-15.55 172.84-3.3Q174.34-2.3 177.09-1.85L177.09-1.85 176.89 0 164.49 0 164.69-1.95Q166.84-2.3 168.24-3.3L168.24-3.3ZM204.48-2.6Q206.33-2.05 208.48-2.05 210.63-2.05 211.98-3.28 213.33-4.5 213.33-6.15 213.33-7.8 212.36-8.83 211.38-9.85 209.93-10.33 208.48-10.8 206.76-11.45 205.03-12.1 203.58-12.8 202.13-13.5 201.16-15.08 200.18-16.65 200.18-18.9L200.18-18.9Q200.18-21.95 202.61-23.78 205.03-25.6 208.76-25.6 212.48-25.6 214.88-24.08 217.28-22.55 217.28-20.35L217.28-20.35Q217.28-17.55 214.78-17.55L214.78-17.55Q212.88-17.55 211.93-19L211.93-19Q212.78-19.7 212.78-20.88 212.78-22.05 211.61-22.75 210.43-23.45 208.56-23.45 206.68-23.45 205.46-22.48 204.23-21.5 204.23-19.75 204.23-18 205.61-16.85 206.98-15.7 208.93-15.08 210.88-14.45 212.86-13.73 214.83-13 216.21-11.4 217.58-9.8 217.58-7.35L217.58-7.35Q217.58-3.7 215.08-1.7 212.58 0.3 208.03 0.3L208.03 0.3Q206.18 0.3 203.76-0.33 201.33-0.95 200.13-1.75L200.13-1.75 200.13-8.4 203.03-8.75Q203.38-4.65 204.48-2.6L204.48-2.6ZM225.58-3.3L225.58-18.8Q225.58-20.8 224.75-21.53 223.93-22.25 221.83-22.35L221.83-22.35 221.98-23.95Q224.03-24.3 229.13-25.8L229.13-25.8 230.18-25.25 230.18-3.3Q231.53-2.3 233.93-1.85L233.93-1.85 233.73 0 221.83 0 222.03-1.95Q224.18-2.3 225.58-3.3L225.58-3.3ZM230.43-32.77Q230.43-29.65 227.6-29.65 224.78-29.65 224.78-32.77 224.78-35.9 227.6-35.9 230.43-35.9 230.43-32.77ZM242.13-2.6Q243.98-2.05 246.13-2.05 248.28-2.05 249.63-3.28 250.98-4.5 250.98-6.15 250.98-7.8 250-8.83 249.03-9.85 247.58-10.33 246.13-10.8 244.4-11.45 242.68-12.1 241.23-12.8 239.78-13.5 238.8-15.08 237.83-16.65 237.83-18.9L237.83-18.9Q237.83-21.95 240.25-23.78 242.68-25.6 246.4-25.6 250.13-25.6 252.53-24.08 254.93-22.55 254.93-20.35L254.93-20.35Q254.93-17.55 252.43-17.55L252.43-17.55Q250.53-17.55 249.58-19L249.58-19Q250.43-19.7 250.43-20.88 250.43-22.05 249.25-22.75 248.08-23.45 246.2-23.45 244.33-23.45 243.1-22.48 241.88-21.5 241.88-19.75 241.88-18 243.25-16.85 244.63-15.7 246.58-15.08 248.53-14.45 250.5-13.73 252.48-13 253.85-11.4 255.23-9.8 255.23-7.35L255.23-7.35Q255.23-3.7 252.73-1.7 250.23 0.3 245.68 0.3L245.68 0.3Q243.83 0.3 241.4-0.33 238.98-0.95 237.78-1.75L237.78-1.75 237.78-8.4 240.68-8.75Q241.03-4.65 242.13-2.6L242.13-2.6ZM271.87 0L268.57 0 261.37-21.45Q260.82-23.1 257.52-23.7L257.52-23.7 257.67-25.3 269.67-25.3 269.52-23.7Q267.27-23.4 266.17-22.5L266.17-22.5 271.02-6.1 276.32-24.4 278.42-24.4 284.17-6.1 288.97-22.5Q287.82-23.35 285.77-23.7L285.77-23.7 285.92-25.3 296.12-25.3 295.97-23.7Q292.72-23.1 292.37-22.1L292.37-22.1 284.92 0 281.62 0 276.72-15.3 271.87 0ZM305.72 0.4L305.72 0.4Q302.52 0.4 300.75-1.23 298.97-2.85 298.97-6.08 298.97-9.3 301.44-11.3 303.92-13.3 308.67-13.65L308.67-13.65 312.92-13.95 312.92-18.35Q312.92-21.05 311.85-22.28 310.77-23.5 308.42-23.5L308.42-23.5Q304.17-23.5 304.17-21.05L304.17-21.05Q304.17-19.7 305.82-19.05L305.82-19.05Q305.82-16.5 302.72-16.5L302.72-16.5Q301.32-16.5 300.47-17.35 299.62-18.2 299.62-19.6L299.62-19.6Q299.62-22.4 302-24.03 304.37-25.65 308.55-25.65 312.72-25.65 315.12-23.73 317.52-21.8 317.52-18.35L317.52-18.35 317.52-3.3Q318.77-2.35 321.27-1.85L321.27-1.85 321.07 0 313.62 0 313.07-2.4Q310.12 0.4 305.72 0.4ZM303.72-6.25L303.72-6.25Q303.72-1.85 307.12-1.85L307.12-1.85Q309.82-1.85 312.92-4.95L312.92-4.95 312.92-11.75 308.87-11.4Q306.47-11.2 305.1-9.8 303.72-8.4 303.72-6.25ZM346.06 0.35L346.06 0.35Q336.46 0.35 336.46-12.1L336.46-12.1Q336.46-18.7 339.51-22.18 342.56-25.65 348.31-25.65L348.31-25.65Q350.41-25.65 352.71-24.75L352.71-24.75 352.71-29.5Q352.71-31.5 351.89-32.23 351.06-32.95 348.96-33.05L348.96-33.05 349.11-34.65Q351.16-35 356.26-36.5L356.26-36.5 357.31-35.95 357.31-3.3Q358.66-2.3 361.06-1.85L361.06-1.85 360.86 0 353.11 0 352.71-3.1Q350.51 0.35 346.06 0.35ZM352.71-12.65L352.71-12.65 352.71-22.25Q350.81-23.35 347.86-23.35 344.91-23.35 343.06-20.4 341.21-17.45 341.21-12.18 341.21-6.9 342.51-4.42 343.81-1.95 346.56-1.95L346.56-1.95Q352.71-1.95 352.71-12.65ZM371.51 0.4L371.51 0.4Q368.31 0.4 366.54-1.23 364.76-2.85 364.76-6.08 364.76-9.3 367.24-11.3 369.71-13.3 374.46-13.65L374.46-13.65 378.71-13.95 378.71-18.35Q378.71-21.05 377.64-22.28 376.56-23.5 374.21-23.5L374.21-23.5Q369.96-23.5 369.96-21.05L369.96-21.05Q369.96-19.7 371.61-19.05L371.61-19.05Q371.61-16.5 368.51-16.5L368.51-16.5Q367.11-16.5 366.26-17.35 365.41-18.2 365.41-19.6L365.41-19.6Q365.41-22.4 367.79-24.03 370.16-25.65 374.34-25.65 378.51-25.65 380.91-23.73 383.31-21.8 383.31-18.35L383.31-18.35 383.31-3.3Q384.56-2.35 387.06-1.85L387.06-1.85 386.86 0 379.41 0 378.86-2.4Q375.91 0.4 371.51 0.4ZM369.51-6.25L369.51-6.25Q369.51-1.85 372.91-1.85L372.91-1.85Q375.61-1.85 378.71-4.95L378.71-4.95 378.71-11.75 374.66-11.4Q372.26-11.2 370.89-9.8 369.51-8.4 369.51-6.25ZM392.96-3.3L392.96-29.5Q392.96-31.5 392.13-32.23 391.31-32.95 389.21-33.05L389.21-33.05 389.36-34.65Q391.41-35 396.51-36.5L396.51-36.5 397.56-35.95 397.56-3.3Q398.91-2.3 401.31-1.85L401.31-1.85 401.11 0 389.21 0 389.41-1.95Q391.56-2.3 392.96-3.3L392.96-3.3ZM412.01 0.4L412.01 0.4Q408.81 0.4 407.03-1.23 405.26-2.85 405.26-6.08 405.26-9.3 407.73-11.3 410.21-13.3 414.96-13.65L414.96-13.65 419.21-13.95 419.21-18.35Q419.21-21.05 418.13-22.28 417.06-23.5 414.71-23.5L414.71-23.5Q410.46-23.5 410.46-21.05L410.46-21.05Q410.46-19.7 412.11-19.05L412.11-19.05Q412.11-16.5 409.01-16.5L409.01-16.5Q407.61-16.5 406.76-17.35 405.91-18.2 405.91-19.6L405.91-19.6Q405.91-22.4 408.28-24.03 410.66-25.65 414.83-25.65 419.01-25.65 421.41-23.73 423.81-21.8 423.81-18.35L423.81-18.35 423.81-3.3Q425.06-2.35 427.56-1.85L427.56-1.85 427.36 0 419.91 0 419.36-2.4Q416.41 0.4 412.01 0.4ZM410.01-6.25L410.01-6.25Q410.01-1.85 413.41-1.85L413.41-1.85Q416.11-1.85 419.21-4.95L419.21-4.95 419.21-11.75 415.16-11.4Q412.76-11.2 411.38-9.8 410.01-8.4 410.01-6.25ZM433.5-3.3L433.5-18.7Q433.5-20.7 432.68-21.43 431.85-22.15 429.75-22.25L429.75-22.25 429.9-23.85Q431-24.05 436.5-25.65L436.5-25.65 437.45-25.15 437.85-22.35Q438.25-22.85 438.88-23.45 439.5-24.05 441.08-24.85 442.65-25.65 444.25-25.65L444.25-25.65Q449.1-25.65 451.15-22.15L451.15-22.15Q454.65-25.65 458.2-25.65 461.75-25.65 464.03-23.7 466.3-21.75 466.3-17.55L466.3-17.55 466.3-3.3Q467.55-2.35 470.05-1.85L470.05-1.85 469.85 0 458 0 458.15-1.85Q460.15-2.15 461.7-3.3L461.7-3.3 461.7-17.7Q461.7-23.05 457.65-23.05L457.65-23.05Q455.85-23.05 454.28-21.73 452.7-20.4 452.2-18.85L452.2-18.85 452.2-3.3Q453.45-2.35 455.95-1.85L455.95-1.85 455.75 0 443.9 0 444.05-1.85Q446.05-2.15 447.6-3.3L447.6-3.3 447.6-17.7Q447.6-23.05 443.55-23.05L443.55-23.05Q441.75-23.05 440.18-21.73 438.6-20.4 438.1-18.85L438.1-18.85 438.1-3.3Q439.45-2.3 441.85-1.85L441.85-1.85 441.65 0 429.75 0 429.95-1.95Q432.1-2.3 433.5-3.3L433.5-3.3ZM490.65-2.6Q492.5-2.05 494.65-2.05 496.8-2.05 498.15-3.28 499.5-4.5 499.5-6.15 499.5-7.8 498.52-8.83 497.55-9.85 496.1-10.33 494.65-10.8 492.92-11.45 491.2-12.1 489.75-12.8 488.3-13.5 487.32-15.08 486.35-16.65 486.35-18.9L486.35-18.9Q486.35-21.95 488.77-23.78 491.2-25.6 494.92-25.6 498.65-25.6 501.05-24.08 503.45-22.55 503.45-20.35L503.45-20.35Q503.45-17.55 500.95-17.55L500.95-17.55Q499.05-17.55 498.1-19L498.1-19Q498.95-19.7 498.95-20.88 498.95-22.05 497.77-22.75 496.6-23.45 494.72-23.45 492.85-23.45 491.62-22.48 490.4-21.5 490.4-19.75 490.4-18 491.77-16.85 493.15-15.7 495.1-15.08 497.05-14.45 499.02-13.73 501-13 502.37-11.4 503.75-9.8 503.75-7.35L503.75-7.35Q503.75-3.7 501.25-1.7 498.75 0.3 494.2 0.3L494.2 0.3Q492.35 0.3 489.92-0.33 487.5-0.95 486.3-1.75L486.3-1.75 486.3-8.4 489.2-8.75Q489.55-4.65 490.65-2.6L490.65-2.6ZM515.5 0.4L515.5 0.4Q512.3 0.4 510.52-1.23 508.75-2.85 508.75-6.08 508.75-9.3 511.22-11.3 513.7-13.3 518.45-13.65L518.45-13.65 522.7-13.95 522.7-18.35Q522.7-21.05 521.62-22.28 520.55-23.5 518.2-23.5L518.2-23.5Q513.95-23.5 513.95-21.05L513.95-21.05Q513.95-19.7 515.6-19.05L515.6-19.05Q515.6-16.5 512.5-16.5L512.5-16.5Q511.1-16.5 510.25-17.35 509.4-18.2 509.4-19.6L509.4-19.6Q509.4-22.4 511.77-24.03 514.15-25.65 518.32-25.65 522.5-25.65 524.9-23.73 527.3-21.8 527.3-18.35L527.3-18.35 527.3-3.3Q528.55-2.35 531.05-1.85L531.05-1.85 530.85 0 523.4 0 522.85-2.4Q519.9 0.4 515.5 0.4ZM513.5-6.25L513.5-6.25Q513.5-1.85 516.9-1.85L516.9-1.85Q519.6-1.85 522.7-4.95L522.7-4.95 522.7-11.75 518.65-11.4Q516.25-11.2 514.87-9.8 513.5-8.4 513.5-6.25ZM536.94-6.25L536.94-6.25 536.94-22.5 532.54-22.5 532.54-24Q537.84-25.8 539.44-30.55L539.44-30.55 541.59-30.55 541.59-25.3 547.69-25.3 547.69-22.5 541.54-22.5 541.54-5.85Q541.54-3.85 541.99-3 542.44-2.15 544.04-2.15 545.64-2.15 547.39-3.2L547.39-3.2 548.44-1.6Q545.94 0.4 542.64 0.4 539.34 0.4 538.14-1.13 536.94-2.65 536.94-6.25ZM553.84-8.3L553.84-8.3 553.84-18.8Q553.84-20.8 553.02-21.53 552.19-22.25 550.09-22.35L550.09-22.35 550.24-23.95Q552.29-24.3 557.39-25.8L557.39-25.8 558.44-25.25 558.44-7.7Q558.44-2.05 563.09-2.05L563.09-2.05Q564.49-2.05 566.04-3.08 567.59-4.1 568.79-6.3L568.79-6.3 568.79-18.8Q568.79-20.8 567.97-21.53 567.14-22.25 565.04-22.35L565.04-22.35 565.19-23.95Q567.24-24.3 572.34-25.8L572.34-25.8 573.39-25.25 573.39-3.3Q574.64-2.35 577.14-1.85L577.14-1.85 576.94 0 569.79 0 569.24-3.4Q566.34 0.4 562.49 0.4L562.49 0.4Q553.84 0.4 553.84-8.3ZM600.79 0.4L600.79 0.4Q597.59 0.4 595.81-1.23 594.04-2.85 594.04-6.08 594.04-9.3 596.51-11.3 598.99-13.3 603.74-13.65L603.74-13.65 607.99-13.95 607.99-18.35Q607.99-21.05 606.91-22.28 605.84-23.5 603.49-23.5L603.49-23.5Q599.24-23.5 599.24-21.05L599.24-21.05Q599.24-19.7 600.89-19.05L600.89-19.05Q600.89-16.5 597.79-16.5L597.79-16.5Q596.39-16.5 595.54-17.35 594.69-18.2 594.69-19.6L594.69-19.6Q594.69-22.4 597.06-24.03 599.44-25.65 603.61-25.65 607.79-25.65 610.19-23.73 612.59-21.8 612.59-18.35L612.59-18.35 612.59-3.3Q613.84-2.35 616.34-1.85L616.34-1.85 616.14 0 608.69 0 608.14-2.4Q605.19 0.4 600.79 0.4ZM598.79-6.25L598.79-6.25Q598.79-1.85 602.19-1.85L602.19-1.85Q604.89-1.85 607.99-4.95L607.99-4.95 607.99-11.75 603.94-11.4Q601.54-11.2 600.16-9.8 598.79-8.4 598.79-6.25ZM622.03 8.1L622.03-18.7Q622.03-20.7 621.21-21.43 620.38-22.15 618.28-22.25L618.28-22.25 618.43-23.85Q619.53-24.05 625.03-25.65L625.03-25.65 625.98-25.15 626.43-21.9Q628.63-25.6 633.28-25.6L633.28-25.6Q642.88-25.6 642.88-13.15L642.88-13.15Q642.88-6.55 639.83-3.08 636.78 0.4 631.03 0.4L631.03 0.4Q628.93 0.4 626.63-0.45L626.63-0.45 626.63 8.1Q627.98 9.1 630.38 9.55L630.38 9.55 630.18 11.4 618.28 11.4 618.48 9.45Q620.63 9.1 622.03 8.1L622.03 8.1ZM626.63-13.1L626.63-13.1 626.63-2.95Q628.43-1.9 631.43-1.9 634.43-1.9 636.28-4.85 638.13-7.8 638.13-13.08 638.13-18.35 636.83-20.83 635.53-23.3 632.78-23.3L632.78-23.3Q626.63-23.3 626.63-13.1ZM650.33-3.3L650.33-29.5Q650.33-31.5 649.51-32.23 648.68-32.95 646.58-33.05L646.58-33.05 646.73-34.65Q648.78-35 653.88-36.5L653.88-36.5 654.93-35.95 654.93-3.3Q656.28-2.3 658.68-1.85L658.68-1.85 658.48 0 646.58 0 646.78-1.95Q648.93-2.3 650.33-3.3L650.33-3.3ZM665.63-3.3L665.63-18.8Q665.63-20.8 664.8-21.53 663.98-22.25 661.88-22.35L661.88-22.35 662.03-23.95Q664.08-24.3 669.18-25.8L669.18-25.8 670.23-25.25 670.23-3.3Q671.58-2.3 673.98-1.85L673.98-1.85 673.78 0 661.88 0 662.08-1.95Q664.23-2.3 665.63-3.3L665.63-3.3ZM670.48-32.77Q670.48-29.65 667.65-29.65 664.83-29.65 664.83-32.77 664.83-35.9 667.65-35.9 670.48-35.9 670.48-32.77ZM680.48-3.3L680.48-29.5Q680.48-31.5 679.65-32.23 678.83-32.95 676.73-33.05L676.73-33.05 676.88-34.65Q678.93-35 684.03-36.5L684.03-36.5 685.08-35.95 685.08-14.9 692.03-22.3Q693.08-23.35 693.68-25.3L693.68-25.3 700.88-25.3 701.03-23.7Q697.38-23.55 695.28-21.35L695.28-21.35 690.48-16.4 698.33-3.4Q700.08-2.3 703.18-1.85L703.18-1.85 702.98 0 695.28 0 687.43-13.25 685.08-10.85 685.08-3.3Q686.43-2.3 688.83-1.85L688.83-1.85 688.63 0 676.73 0 676.93-1.95Q679.08-2.3 680.48-3.3L680.48-3.3ZM711.77 0.4L711.77 0.4Q708.57 0.4 706.8-1.23 705.02-2.85 705.02-6.08 705.02-9.3 707.5-11.3 709.97-13.3 714.72-13.65L714.72-13.65 718.97-13.95 718.97-18.35Q718.97-21.05 717.9-22.28 716.82-23.5 714.47-23.5L714.47-23.5Q710.22-23.5 710.22-21.05L710.22-21.05Q710.22-19.7 711.87-19.05L711.87-19.05Q711.87-16.5 708.77-16.5L708.77-16.5Q707.37-16.5 706.52-17.35 705.67-18.2 705.67-19.6L705.67-19.6Q705.67-22.4 708.05-24.03 710.42-25.65 714.6-25.65 718.77-25.65 721.17-23.73 723.57-21.8 723.57-18.35L723.57-18.35 723.57-3.3Q724.82-2.35 727.32-1.85L727.32-1.85 727.12 0 719.67 0 719.12-2.4Q716.17 0.4 711.77 0.4ZM709.77-6.25L709.77-6.25Q709.77-1.85 713.17-1.85L713.17-1.85Q715.87-1.85 718.97-4.95L718.97-4.95 718.97-11.75 714.92-11.4Q712.52-11.2 711.15-9.8 709.77-8.4 709.77-6.25ZM735.02-2.6Q736.87-2.05 739.02-2.05 741.17-2.05 742.52-3.28 743.87-4.5 743.87-6.15 743.87-7.8 742.9-8.83 741.92-9.85 740.47-10.33 739.02-10.8 737.3-11.45 735.57-12.1 734.12-12.8 732.67-13.5 731.7-15.08 730.72-16.65 730.72-18.9L730.72-18.9Q730.72-21.95 733.15-23.78 735.57-25.6 739.3-25.6 743.02-25.6 745.42-24.08 747.82-22.55 747.82-20.35L747.82-20.35Q747.82-17.55 745.32-17.55L745.32-17.55Q743.42-17.55 742.47-19L742.47-19Q743.32-19.7 743.32-20.88 743.32-22.05 742.15-22.75 740.97-23.45 739.1-23.45 737.22-23.45 736-22.48 734.77-21.5 734.77-19.75 734.77-18 736.15-16.85 737.52-15.7 739.47-15.08 741.42-14.45 743.4-13.73 745.37-13 746.75-11.4 748.12-9.8 748.12-7.35L748.12-7.35Q748.12-3.7 745.62-1.7 743.12 0.3 738.57 0.3L738.57 0.3Q736.72 0.3 734.3-0.33 731.87-0.95 730.67-1.75L730.67-1.75 730.67-8.4 733.57-8.75Q733.92-4.65 735.02-2.6L735.02-2.6ZM756.12-3.3L756.12-18.8Q756.12-20.8 755.29-21.53 754.47-22.25 752.37-22.35L752.37-22.35 752.52-23.95Q754.57-24.3 759.67-25.8L759.67-25.8 760.72-25.25 760.72-3.3Q762.07-2.3 764.47-1.85L764.47-1.85 764.27 0 752.37 0 752.57-1.95Q754.72-2.3 756.12-3.3L756.12-3.3ZM760.97-32.77Q760.97-29.65 758.14-29.65 755.32-29.65 755.32-32.77 755.32-35.9 758.14-35.9 760.97-35.9 760.97-32.77Z" opacity="1" transform="matrix(1,0,0,1,0,0)" fill="#000000" class="slogan-text-1" data-fill-palette-color="quaternary" id="text-1"></path></svg></g></svg></g></svg></g></svg></g><g transform="matrix(1,0,0,1,55.08424553095015,0)"><svg viewBox="0 0 102.98995016525681 91.68617514711887" height="91.68617514711887" width="102.98995016525681"><g><svg xmlns="http://www.w3.org/2000/svg" xmlns:xlink="http://www.w3.org/1999/xlink" version="1.1" x="0" y="0" viewBox="9 17 82 73" enable-background="new 0 0 100 100" xml:space="preserve" height="91.68617514711887" width="102.98995016525681" class="icon-icon-0" data-fill-palette-color="quaternary" id="icon-0"><g fill="#ffffff" data-fill-palette-color="quaternary"><g fill="#ffffff" data-fill-palette-color="quaternary"><circle cx="50" cy="73" r="2.0" fill="#000000" data-fill-palette-color="quaternary"></circle><path d="M84 17H16C13.58 17 9 18.46 9 24V72C9 74.42 10.46 79 16 79H38.89C38.48 81.05 36.83 82.47 35.35 83.74 34.09 84.83 33 85.77 33 87 33 89.2 34.79 90 36 90H64C65.21 90 67 89.2 67 87 67 85.77 65.91 84.83 64.65 83.74 63.17 82.469 61.519 81.05 61.11 79H84C86.42 79 91 77.54 91 72V24C91 18.46 86.42 17 84 17M15 25C15 23.17 16.54 23.01 17 23H83C84.83 23 84.99 24.54 85 25V62H15zM63.34 85.26C63.96 85.79 65 86.68 65 87 65 87.8 64.45 87.99 63.99 88H36.01C35.55 87.99 35 87.81 35 87 35 86.68 36.04 85.79 36.66 85.26 38.31 83.84 40.51 81.941 40.93 79H59.07C59.49 81.94 61.69 83.84 63.34 85.26M89 72C89 76.82 84.52 77 84 77H16C11.18 77 11 72.51 11 72V69H89z" fill="#000000" data-fill-palette-color="quaternary"></path><path d="M49 37A1 1 0 0 1 51 37V39A1 1 0 0 1 49 39z" fill="#000000" data-fill-palette-color="quaternary"></path><path d="M49 47A1 1 0 0 1 51 47V49A1 1 0 0 1 49 49z" fill="#000000" data-fill-palette-color="quaternary"></path><path d="M53.535 38.05A1 1 0 1 1 54.95 39.464L53.535 40.879A1 1 0 0 1 52.121 39.464z" fill="#000000" data-fill-palette-color="quaternary"></path><path d="M46.464 45.121A1 1 0 0 1 47.879 45.121C48.269 45.512 48.269 46.145 47.879 46.536L46.464 47.95A0.999 0.999 0 1 1 45.05 46.536z" fill="#000000" data-fill-palette-color="quaternary"></path><path d="M56 42A1 1 0 0 1 56 44H54A1 1 0 0 1 54 42z" fill="#000000" data-fill-palette-color="quaternary"></path><path d="M46 42A1 1 0 0 1 46 44H44A1 1 0 0 1 44 42z" fill="#000000" data-fill-palette-color="quaternary"></path><path d="M54.95 46.536A1.001 1.001 0 0 1 53.535 47.951L52.121 46.537A1.001 1.001 0 0 1 53.535 45.122z" fill="#000000" data-fill-palette-color="quaternary"></path><path d="M47.879 39.464C48.269 39.855 48.269 40.488 47.879 40.879 47.488 41.269 46.855 41.269 46.464 40.879L45.05 39.464A0.999 0.999 0 1 1 46.464 38.05z" fill="#000000" data-fill-palette-color="quaternary"></path></g></g></svg></g></svg></g><g></g></svg></g></svg></g></svg></g></svg></g><defs></defs></svg><rect width="342.85155851775386" height="342.85155851775386" fill="none" stroke="none" visibility="hidden"></rect></g></svg></g></svg>