<svg xmlns="http://www.w3.org/2000/svg" version="1.1" xmlns:xlink="http://www.w3.org/1999/xlink" xmlns:svgjs="http://svgjs.dev/svgjs" width="128" height="128" viewBox="0 0 128 128"><g transform="matrix(0.8046875,0,0,0.8046875,12.41184074821259,12.814873242367177)"><svg viewBox="0 0 98 98" data-background-color="#ffffff" preserveAspectRatio="xMidYMid meet" height="127" width="128" xmlns="http://www.w3.org/2000/svg" xmlns:xlink="http://www.w3.org/1999/xlink"><g id="tight-bounds" transform="matrix(1,0,0,1,0.08387967645792571,0.08387967645792571)"><svg viewBox="0 0 97.83224064708413 97.83224064708413" height="97.83224064708413" width="97.83224064708413"><g><svg></svg></g><g><svg viewBox="0 0 97.83224064708413 97.83224064708413" height="97.83224064708413" width="97.83224064708413"><g><path d="M0 48.916c0-27.016 21.9-48.916 48.916-48.916 27.016 0 48.916 21.9 48.916 48.916 0 27.016-21.9 48.916-48.916 48.916-27.016 0-48.916-21.9-48.916-48.916zM48.916 93.747c24.76 0 44.831-20.072 44.831-44.831 0-24.76-20.072-44.831-44.831-44.831-24.76 0-44.831 20.072-44.831 44.831 0 24.76 20.072 44.831 44.831 44.831z" data-fill-palette-color="tertiary" fill="#61777f" stroke="transparent"></path><ellipse rx="46.959475510600384" ry="46.959475510600384" cx="48.91612032354207" cy="48.91612032354207" fill="#61777f" stroke="transparent" stroke-width="0" fill-opacity="1" data-fill-palette-color="tertiary"></ellipse></g><g transform="matrix(1,0,0,1,23.475393915029336,26.267668764744148)"><svg viewBox="0 0 50.88145281702546 45.29690311759584" height="45.29690311759584" width="50.88145281702546"><g><svg viewBox="0 0 50.88145281702546 45.29690311759584" height="45.29690311759584" width="50.88145281702546"><g><svg viewBox="0 0 50.88145281702546 45.29690311759584" height="45.29690311759584" width="50.88145281702546"><g id="textblocktransform"><svg viewBox="0 0 50.88145281702546 45.29690311759584" height="45.29690311759584" width="50.88145281702546" id="textblock"><g><svg viewBox="0 0 50.88145281702546 45.29690311759584" height="45.29690311759584" width="50.88145281702546"><g><svg viewBox="0 0 50.88145281702546 45.29690311759584" height="45.29690311759584" width="50.88145281702546"><g><svg xmlns="http://www.w3.org/2000/svg" xmlns:xlink="http://www.w3.org/1999/xlink" version="1.1" x="0" y="0" viewBox="9 17 82 73" enable-background="new 0 0 100 100" xml:space="preserve" height="45.29690311759584" width="50.88145281702546" class="icon-icon-0" data-fill-palette-color="quaternary" id="icon-0"><g fill="#ffffff" data-fill-palette-color="quaternary"><g fill="#ffffff" data-fill-palette-color="quaternary"><circle cx="50" cy="73" r="2.0" fill="#ffffff" data-fill-palette-color="quaternary"></circle><path d="M84 17H16C13.58 17 9 18.46 9 24V72C9 74.42 10.46 79 16 79H38.89C38.48 81.05 36.83 82.47 35.35 83.74 34.09 84.83 33 85.77 33 87 33 89.2 34.79 90 36 90H64C65.21 90 67 89.2 67 87 67 85.77 65.91 84.83 64.65 83.74 63.17 82.469 61.519 81.05 61.11 79H84C86.42 79 91 77.54 91 72V24C91 18.46 86.42 17 84 17M15 25C15 23.17 16.54 23.01 17 23H83C84.83 23 84.99 24.54 85 25V62H15zM63.34 85.26C63.96 85.79 65 86.68 65 87 65 87.8 64.45 87.99 63.99 88H36.01C35.55 87.99 35 87.81 35 87 35 86.68 36.04 85.79 36.66 85.26 38.31 83.84 40.51 81.941 40.93 79H59.07C59.49 81.94 61.69 83.84 63.34 85.26M89 72C89 76.82 84.52 77 84 77H16C11.18 77 11 72.51 11 72V69H89z" fill="#ffffff" data-fill-palette-color="quaternary"></path><path d="M49 37A1 1 0 0 1 51 37V39A1 1 0 0 1 49 39z" fill="#ffffff" data-fill-palette-color="quaternary"></path><path d="M49 47A1 1 0 0 1 51 47V49A1 1 0 0 1 49 49z" fill="#ffffff" data-fill-palette-color="quaternary"></path><path d="M53.535 38.05A1 1 0 1 1 54.95 39.464L53.535 40.879A1 1 0 0 1 52.121 39.464z" fill="#ffffff" data-fill-palette-color="quaternary"></path><path d="M46.464 45.121A1 1 0 0 1 47.879 45.121C48.269 45.512 48.269 46.145 47.879 46.536L46.464 47.95A0.999 0.999 0 1 1 45.05 46.536z" fill="#ffffff" data-fill-palette-color="quaternary"></path><path d="M56 42A1 1 0 0 1 56 44H54A1 1 0 0 1 54 42z" fill="#ffffff" data-fill-palette-color="quaternary"></path><path d="M46 42A1 1 0 0 1 46 44H44A1 1 0 0 1 44 42z" fill="#ffffff" data-fill-palette-color="quaternary"></path><path d="M54.95 46.536A1.001 1.001 0 0 1 53.535 47.951L52.121 46.537A1.001 1.001 0 0 1 53.535 45.122z" fill="#ffffff" data-fill-palette-color="quaternary"></path><path d="M47.879 39.464C48.269 39.855 48.269 40.488 47.879 40.879 47.488 41.269 46.855 41.269 46.464 40.879L45.05 39.464A0.999 0.999 0 1 1 46.464 38.05z" fill="#ffffff" data-fill-palette-color="quaternary"></path></g></g></svg></g></svg></g></svg></g></svg></g></svg></g><g></g></svg></g></svg></g></svg></g><defs></defs></svg><rect width="97.83224064708413" height="97.83224064708413" fill="none" stroke="none" visibility="hidden"></rect></g></svg></g></svg>